<svg width="24" height="24" viewBox="0 0 24 24" fill="none" xmlns="http://www.w3.org/2000/svg">
<g opacity="0.3" clip-path="url(#clip0_72_3570)">
<path d="M12 0.75C9.77495 0.75 7.59988 1.4098 5.74983 2.64597C3.89977 3.88213 2.45783 5.63914 1.60635 7.69481C0.754861 9.75048 0.532074 12.0125 0.966157 14.1948C1.40024 16.3771 2.4717 18.3816 4.04504 19.955C5.61838 21.5283 7.62294 22.5998 9.80523 23.0338C11.9875 23.4679 14.2495 23.2451 16.3052 22.3936C18.3608 21.5422 20.1179 20.1002 21.354 18.2502C22.5902 16.4001 23.25 14.225 23.25 12C23.2466 9.01735 22.0603 6.15783 19.9512 4.04878C17.8422 1.93972 14.9826 0.753375 12 0.75ZM5.99999 14.25C5.55498 14.25 5.11997 14.118 4.74996 13.8708C4.37995 13.6236 4.09156 13.2722 3.92126 12.861C3.75097 12.4499 3.70641 11.9975 3.79322 11.561C3.88004 11.1246 4.09433 10.7237 4.409 10.409C4.72367 10.0943 5.12458 9.88005 5.56104 9.79323C5.9975 9.70642 6.4499 9.75097 6.86103 9.92127C7.27216 10.0916 7.62356 10.38 7.8708 10.75C8.11803 11.12 8.24999 11.555 8.24999 12C8.24999 12.5967 8.01294 13.169 7.59098 13.591C7.16903 14.0129 6.59673 14.25 5.99999 14.25ZM12 20.25C11.555 20.25 11.12 20.118 10.75 19.8708C10.3799 19.6236 10.0916 19.2722 9.92126 18.861C9.75097 18.4499 9.70641 17.9975 9.79322 17.561C9.88004 17.1246 10.0943 16.7237 10.409 16.409C10.7237 16.0943 11.1246 15.88 11.561 15.7932C11.9975 15.7064 12.4499 15.751 12.861 15.9213C13.2722 16.0916 13.6236 16.38 13.8708 16.75C14.118 17.12 14.25 17.555 14.25 18C14.25 18.5967 14.0129 19.169 13.591 19.591C13.169 20.0129 12.5967 20.25 12 20.25ZM12 8.25C11.555 8.25 11.12 8.11804 10.75 7.87081C10.3799 7.62357 10.0916 7.27217 9.92126 6.86104C9.75097 6.4499 9.70641 5.9975 9.79322 5.56105C9.88004 5.12459 10.0943 4.72368 10.409 4.40901C10.7237 4.09434 11.1246 3.88005 11.561 3.79323C11.9975 3.70642 12.4499 3.75097 12.861 3.92127C13.2722 4.09157 13.6236 4.37996 13.8708 4.74997C14.118 5.11998 14.25 5.55499 14.25 6C14.25 6.59674 14.0129 7.16903 13.591 7.59099C13.169 8.01295 12.5967 8.25 12 8.25ZM18 14.25C17.555 14.25 17.12 14.118 16.75 13.8708C16.3799 13.6236 16.0916 13.2722 15.9213 12.861C15.751 12.4499 15.7064 11.9975 15.7932 11.561C15.88 11.1246 16.0943 10.7237 16.409 10.409C16.7237 10.0943 17.1246 9.88005 17.561 9.79323C17.9975 9.70642 18.4499 9.75097 18.861 9.92127C19.2722 10.0916 19.6236 10.38 19.8708 10.75C20.118 11.12 20.25 11.555 20.25 12C20.25 12.5967 20.0129 13.169 19.591 13.591C19.169 14.0129 18.5967 14.25 18 14.25Z" fill="#0F1B2B"/>
</g>
<defs>
<clipPath id="clip0_72_3570">
<rect width="24" height="24" fill="white"/>
</clipPath>
</defs>
</svg>
